<svg version="1.1" id="Layer_1" xmlns="http://www.w3.org/2000/svg" xmlns:xlink="http://www.w3.org/1999/xlink" x="0px" y="0px"
	 width="100%" viewBox="0 0 152 115" enable-background="new 0 0 152 115" xml:space="preserve">
<path fill="#000000" opacity="1.000000" stroke="none" 
	d="
M102.000000,116.000000 
	C68.000008,116.000000 34.500008,116.000000 1.000009,116.000000 
	C1.000006,77.666672 1.000006,39.333351 1.000003,1.000019 
	C51.666653,1.000013 102.333305,1.000013 152.999969,1.000006 
	C152.999969,39.333313 152.999969,77.666626 152.999985,115.999969 
	C136.166672,116.000000 119.333336,116.000000 102.000000,116.000000 
M73.104843,102.586227 
	C73.505562,102.427803 73.906273,102.269379 74.577316,102.186562 
	C74.577316,102.186562 74.846939,102.264618 75.245720,102.756844 
	C76.134232,102.173592 77.022743,101.590347 77.955925,100.502609 
	C77.966507,100.334114 77.977081,100.165627 78.130417,99.567772 
	C78.130417,99.567772 78.176781,99.117683 78.064011,99.111961 
	C78.064011,99.111961 78.148964,99.186348 78.858727,99.115585 
	C80.224640,98.832771 81.590553,98.549957 83.252579,98.797836 
	C83.532478,99.534462 83.812386,100.271088 84.223831,101.630722 
	C85.746338,101.977951 87.268852,102.325180 88.944298,102.707291 
	C88.944298,101.253784 88.944298,100.137962 88.933441,98.503525 
	C88.915291,98.331566 88.897133,98.159615 88.855217,97.424225 
	C88.531059,96.964348 88.206909,96.504478 87.790657,95.491379 
	C87.535019,94.997246 87.279381,94.503113 87.123474,93.331345 
	C86.779289,92.802223 86.435104,92.273102 86.059761,91.371246 
	C86.059761,91.371246 86.003036,91.001518 86.099663,90.335007 
	C85.757408,89.820206 85.415154,89.305405 85.097809,88.054604 
	C84.454491,86.047295 83.811172,84.039978 82.807930,81.310356 
	C81.006935,81.247269 78.557999,79.342110 77.981987,83.754501 
	C76.636887,88.115067 75.291786,92.475632 73.364349,97.050179 
	C72.854996,97.682465 72.345642,98.314751 71.226624,98.381310 
	C71.226624,92.644096 71.226624,86.906891 71.226624,80.779449 
	C68.926720,81.007523 67.538849,81.145149 66.665573,81.231743 
	C65.990280,83.825104 65.466217,85.837700 64.585686,89.219223 
	C62.184952,84.365784 61.347515,79.850212 55.198807,81.311066 
	C54.461800,82.479370 53.724792,83.647667 52.720531,84.167313 
	C49.505692,80.973701 43.274635,79.521194 41.921440,82.149002 
	C40.385155,85.132362 39.507000,89.035439 43.212864,92.548096 
	C43.792210,92.769714 44.371559,92.991333 45.293041,93.636742 
	C45.814354,93.774315 46.335670,93.911880 47.121269,94.603050 
	C47.726685,95.127724 48.332104,95.652397 48.902977,96.864792 
	C46.780098,99.323936 45.521610,97.557564 43.796818,95.309555 
	C42.481091,95.521400 41.165359,95.733253 39.264267,95.492493 
	C38.440018,93.046455 38.199631,90.121567 36.668789,88.255051 
	C33.574554,84.482323 30.865435,85.111992 24.464890,89.700607 
	C24.602484,83.386711 20.654213,79.864365 14.670006,81.022552 
	C9.980390,81.930176 9.243099,85.839828 9.055113,89.491005 
	C8.851191,93.451721 8.341955,97.886459 11.645054,100.992470 
	C15.681913,104.788437 19.878119,102.509087 23.981962,100.710464 
	C24.879904,100.316925 25.957380,100.333023 27.348528,100.770813 
	C31.746885,104.822533 35.170612,103.983040 38.789272,98.121582 
	C39.498989,98.493042 40.208706,98.864510 40.939014,99.623711 
	C40.939014,99.623711 41.027603,100.001770 41.133518,100.595375 
	C41.753963,101.039261 42.374409,101.483147 43.680271,102.299706 
	C46.128834,102.166115 48.577396,102.032524 51.537510,101.881012 
	C51.727486,101.609062 51.917461,101.337105 52.021282,101.087837 
	C52.021282,101.087837 52.104347,101.120049 52.649269,100.879173 
	C53.075386,100.254547 53.501503,99.629913 53.990932,98.572762 
	C53.990932,98.572762 54.063660,98.141708 54.697735,98.010262 
	C55.128155,97.982666 55.558571,97.955078 56.015739,98.706749 
	C56.015739,99.963676 56.015739,101.220612 56.015739,102.292580 
	C57.788876,102.292580 59.155388,102.292580 60.989632,102.292580 
	C60.989632,99.002846 60.989632,96.012680 60.989632,91.715042 
	C62.883713,95.946266 64.198143,98.882614 65.752754,102.355492 
	C67.765831,101.932335 69.925423,101.478378 72.091805,101.546257 
	C72.373009,101.730186 72.654205,101.914116 72.890663,102.045830 
	C72.890663,102.045830 72.886292,102.114449 73.104843,102.586227 
M128.809845,100.695763 
	C128.880768,97.756721 129.293198,94.776649 128.946167,91.887817 
	C128.359695,87.005737 130.410675,85.319931 135.025787,86.892586 
	C135.025787,92.158096 135.025787,97.423599 135.025787,102.609474 
	C138.742020,103.668205 140.079865,102.406509 139.989075,99.070305 
	C139.876694,94.940651 139.962173,90.805618 139.962173,86.391533 
	C141.996109,86.017532 143.797821,85.686234 145.599533,85.354935 
	C145.832870,84.870941 146.066208,84.386955 146.299561,83.902962 
	C144.549194,82.899742 142.883347,81.284554 141.029770,81.028496 
	C137.782608,80.579933 134.420242,80.965225 130.830795,80.298851 
	C124.263779,81.568153 124.263779,81.568153 123.995667,88.062614 
	C123.995667,92.789276 123.995667,97.515938 123.995667,103.668251 
	C125.536209,102.657211 126.766647,101.849686 128.809845,100.695763 
M104.935127,87.131630 
	C104.238480,81.606316 100.747879,80.376068 95.801620,80.906494 
	C91.091194,81.411629 90.871010,85.392075 90.277946,88.421440 
	C89.704712,91.349487 90.361092,94.600624 90.879684,97.641228 
	C91.707253,102.493431 95.452652,103.402580 99.480560,102.870888 
	C103.454697,102.346268 105.485435,99.842667 105.002464,95.593933 
	C104.836067,94.130096 105.035263,92.624702 105.467575,91.006180 
	C105.467575,91.006180 105.874268,90.895866 106.547546,91.300858 
	C106.589584,93.657402 106.047867,96.221535 106.796524,98.326797 
	C108.304062,102.566078 112.189568,103.372917 116.121574,102.789711 
	C119.842926,102.237762 122.714867,100.493256 122.004593,95.845772 
	C121.756470,94.222229 121.919922,92.535789 121.777145,90.242767 
	C121.519165,88.835289 121.261192,87.427803 121.052429,85.240875 
	C120.764381,84.519318 120.614128,83.278740 120.166084,83.159782 
	C117.083321,82.341347 113.629311,80.671494 110.912003,81.444733 
	C108.774376,82.053024 107.521004,85.768753 105.468132,87.993713 
	C105.468132,87.993713 105.067986,87.861496 104.935127,87.131630 
M100.929543,12.426025 
	C94.142784,6.934304 86.737038,7.107788 79.726593,11.266923 
	C73.451324,14.989900 70.315353,21.477797 72.191048,28.494570 
	C74.355431,36.591293 71.302231,41.663441 65.380875,46.124538 
	C65.249710,46.223358 65.165390,46.386036 65.031700,46.479610 
	C62.577663,48.197189 62.570530,50.366348 64.328590,52.415291 
	C66.289062,54.700134 68.503036,53.817474 70.346458,52.121181 
	C72.793907,49.869064 75.116737,47.478233 77.437813,45.093185 
	C79.049332,43.437244 80.214935,43.290176 82.860016,44.001343 
	C88.513580,45.521374 94.783562,46.636677 100.126015,42.442951 
	C110.733665,34.116131 111.207123,22.653631 100.929543,12.426025 
M50.124226,52.911205 
	C59.719547,48.068756 63.584232,41.528179 59.956837,36.036072 
	C53.496899,36.764584 50.288227,42.100143 46.632858,46.320351 
	C44.836197,48.394634 44.934471,52.152607 50.124226,52.911205 
M78.916374,61.594513 
	C80.904900,59.594212 83.298859,57.842724 84.734612,55.503189 
	C85.640778,54.026604 85.114845,51.671154 85.231277,49.709927 
	C83.263046,49.850613 80.875092,49.340202 79.420616,50.277836 
	C76.967567,51.859196 75.249222,54.531338 72.958244,56.425945 
	C70.370186,58.566246 70.759537,60.808086 72.560959,62.840912 
	C74.585487,65.125496 76.671753,64.226044 78.916374,61.594513 
M64.801971,29.455515 
	C61.319965,29.810656 61.585117,32.534874 62.245361,34.555885 
	C62.555573,35.505432 64.895119,36.158211 66.349304,36.227650 
	C67.193604,36.267967 68.760040,34.964298 68.862320,34.126350 
	C69.145210,31.808926 69.006950,29.275940 64.801971,29.455515 
z"/>
<path fill="#B20C0C" opacity="1.000000" stroke="none" 
	d="
M101.185944,12.693524 
	C111.207123,22.653631 110.733665,34.116131 100.126015,42.442951 
	C94.783562,46.636677 88.513580,45.521374 82.860016,44.001343 
	C80.214935,43.290176 79.049332,43.437244 77.437813,45.093185 
	C75.116737,47.478233 72.793907,49.869064 70.346458,52.121181 
	C68.503036,53.817474 66.289062,54.700134 64.328590,52.415291 
	C62.570530,50.366348 62.577663,48.197189 65.031700,46.479610 
	C65.165390,46.386036 65.249710,46.223358 65.380875,46.124538 
	C71.302231,41.663441 74.355431,36.591293 72.191048,28.494570 
	C70.315353,21.477797 73.451324,14.989900 79.726593,11.266923 
	C86.737038,7.107788 94.142784,6.934304 101.185944,12.693524 
M82.690628,19.180374 
	C79.307129,23.428032 78.120583,27.806728 81.069405,32.935253 
	C83.047523,36.375557 88.078743,38.296814 92.524864,36.721394 
	C98.338234,34.661507 101.508591,30.449320 100.472549,26.162008 
	C98.320488,17.256502 91.546547,14.400619 82.690628,19.180374 
z"/>
<path fill="#4D515C" opacity="1.000000" stroke="none" 
	d="
M83.167847,82.032669 
	C83.811172,84.039978 84.454491,86.047295 85.078300,88.745445 
	C85.373543,89.958031 85.688286,90.479774 86.003036,91.001518 
	C86.003036,91.001518 86.059761,91.371246 86.062492,91.888214 
	C86.384727,92.939789 86.704231,93.474380 87.023743,94.008980 
	C87.279381,94.503113 87.535019,94.997246 87.636856,95.944687 
	C87.948372,96.927887 88.413681,97.457771 88.878983,97.987656 
	C88.897133,98.159615 88.915291,98.331566 88.663208,98.967766 
	C86.959404,99.957237 85.525848,100.482475 84.092285,101.007713 
	C83.812386,100.271088 83.532478,99.534462 82.912537,98.210556 
	C80.661011,96.907654 78.649445,95.908798 78.148964,99.186348 
	C78.148964,99.186348 78.064011,99.111961 77.927910,99.147675 
	C77.700294,99.271446 77.519066,99.420769 77.530975,99.438210 
	C77.666145,99.636162 77.830856,99.813950 77.987656,99.997131 
	C77.977081,100.165627 77.966507,100.334114 77.577614,100.755981 
	C76.415184,101.427780 75.631058,101.846199 74.846939,102.264618 
	C74.846939,102.264618 74.577316,102.186562 74.086594,102.127075 
	C73.359337,102.083206 73.122810,102.098831 72.886292,102.114449 
	C72.886292,102.114449 72.890663,102.045830 72.839569,101.844727 
	C72.630196,101.350662 72.395714,101.144264 72.085022,101.024429 
	C69.925423,101.478378 67.765831,101.932335 65.752754,102.355492 
	C64.198143,98.882614 62.883713,95.946266 60.989632,91.715042 
	C60.989632,96.012680 60.989632,99.002846 60.989632,102.292580 
	C59.155388,102.292580 57.788876,102.292580 56.015739,102.292580 
	C56.015739,101.220612 56.015739,99.963676 55.998711,97.854248 
	C55.959339,91.691765 55.936989,86.381783 55.914639,81.071793 
	C61.347515,79.850212 62.184952,84.365784 64.585686,89.219223 
	C65.466217,85.837700 65.990280,83.825104 66.665573,81.231743 
	C67.538849,81.145149 68.926720,81.007523 71.226624,80.779449 
	C71.226624,86.906891 71.226624,92.644096 71.880104,98.639786 
	C73.004616,98.210907 73.475647,97.523552 73.946686,96.836197 
	C75.291786,92.475632 76.636887,88.115067 78.362335,83.220032 
	C80.217735,82.467934 81.692787,82.250305 83.167847,82.032669 
M81.502655,90.500168 
	C81.139008,90.292656 80.792908,90.002220 80.402817,89.919624 
	C80.252914,89.887894 80.002754,90.329727 79.798279,90.555771 
	C80.237427,90.634544 80.676582,90.713318 81.502655,90.500168 
z"/>
<path fill="#4D505B" opacity="1.000000" stroke="none" 
	d="
M42.913692,91.988289 
	C39.507000,89.035439 40.385155,85.132362 41.921440,82.149002 
	C43.274635,79.521194 49.505692,80.973701 52.864700,84.870651 
	C52.959698,86.075592 52.910519,86.577194 52.548042,87.191910 
	C50.820118,86.824196 49.405495,86.343361 47.939465,85.574913 
	C47.277020,85.579330 46.665985,85.871361 46.034237,86.377068 
	C46.013527,86.590744 45.949753,87.015335 45.734772,87.178322 
	C45.746319,87.879028 45.972847,88.416756 46.502331,89.127037 
	C49.226608,91.152847 51.647930,93.006088 53.745667,95.009491 
	C53.635941,96.153664 53.849800,97.147690 54.063660,98.141708 
	C54.063660,98.141708 53.990932,98.572762 53.641384,98.840477 
	C52.896008,99.778816 52.500179,100.449432 52.104347,101.120049 
	C52.104347,101.120049 52.021282,101.087837 51.838356,101.149780 
	C51.364746,101.366730 51.154922,101.595802 51.025959,101.898926 
	C48.577396,102.032524 46.128834,102.166115 43.291843,101.804688 
	C42.278145,100.873703 41.652874,100.437737 41.027603,100.001770 
	C41.027603,100.001770 40.939014,99.623711 40.912556,99.092896 
	C40.197987,98.054802 39.509876,97.547523 38.821766,97.040245 
	C38.607510,97.398567 38.393250,97.756882 38.178993,98.115204 
	C35.170612,103.983040 31.746885,104.822533 27.110725,100.078682 
	C26.245840,96.280785 25.618757,93.175026 24.991676,90.069260 
	C30.865435,85.111992 33.574554,84.482323 36.668789,88.255051 
	C38.199631,90.121567 38.440018,93.046455 39.995636,95.738281 
	C41.897568,95.959587 43.068127,95.935112 44.238686,95.910645 
	C45.521610,97.557564 46.780098,99.323936 48.897202,96.174057 
	C48.213276,95.005371 47.535130,94.527412 46.856983,94.049454 
	C46.335670,93.911880 45.814354,93.774315 44.980434,93.137238 
	C44.083115,92.421257 43.498405,92.204773 42.913692,91.988289 
z"/>
<path fill="#555863" opacity="1.000000" stroke="none" 
	d="
M24.728283,89.884933 
	C25.618757,93.175026 26.245840,96.280785 26.912548,99.773506 
	C25.957380,100.333023 24.879904,100.316925 23.981962,100.710464 
	C19.878119,102.509087 15.681913,104.788437 11.645054,100.992470 
	C8.341955,97.886459 8.851191,93.451721 9.055113,89.491005 
	C9.243099,85.839828 9.980390,81.930176 14.670006,81.022552 
	C20.654213,79.864365 24.602484,83.386711 24.728283,89.884933 
z"/>
<path fill="#4E525D" opacity="1.000000" stroke="none" 
	d="
M121.895416,90.878075 
	C121.919922,92.535789 121.756470,94.222229 122.004593,95.845772 
	C122.714867,100.493256 119.842926,102.237762 116.121574,102.789711 
	C112.189568,103.372917 108.304062,102.566078 106.796524,98.326797 
	C106.047867,96.221535 106.589584,93.657402 106.254456,90.750748 
	C105.932533,89.501816 105.903694,88.802994 105.874863,88.104172 
	C107.521004,85.768753 108.774376,82.053024 110.912003,81.444733 
	C113.629311,80.671494 117.083321,82.341347 120.166084,83.159782 
	C120.614128,83.278740 120.764381,84.519318 121.033310,86.037064 
	C117.835861,86.833260 114.657524,86.833260 110.738174,86.833260 
	C111.309998,89.567085 111.946960,92.612381 112.583931,95.657669 
	C112.988655,95.569504 113.393379,95.481339 113.798103,95.393173 
	C113.941566,94.000923 114.085022,92.608673 114.263351,90.878075 
	C116.986336,90.878075 119.440880,90.878075 121.895416,90.878075 
z"/>
<path fill="#4E525C" opacity="1.000000" stroke="none" 
	d="
M105.067451,91.138298 
	C105.035263,92.624702 104.836067,94.130096 105.002464,95.593933 
	C105.485435,99.842667 103.454697,102.346268 99.480560,102.870888 
	C95.452652,103.402580 91.707253,102.493431 90.879684,97.641228 
	C90.361092,94.600624 89.704712,91.349487 90.277946,88.421440 
	C90.871010,85.392075 91.091194,81.411629 95.801620,80.906494 
	C100.747879,80.376068 104.238480,81.606316 104.560242,87.564346 
	C101.310303,87.829620 98.435249,87.662178 95.467903,87.489357 
	C95.123360,88.603508 94.233727,90.019974 94.405617,91.293137 
	C94.621689,92.893555 95.655289,94.407387 96.518860,95.849106 
	C96.584305,95.958359 98.105103,95.195862 99.138977,94.825562 
	C99.423157,94.729355 99.517754,94.646187 99.612350,94.563019 
	C99.522804,94.474678 99.444916,94.336372 99.340446,94.312004 
	C99.235718,94.287567 99.104462,94.376831 98.608795,94.277573 
	C98.436333,93.094559 98.541542,91.182907 98.859489,91.146843 
	C100.902847,90.915070 102.992805,91.094162 105.067451,91.138298 
z"/>
<path fill="#B40C0C" opacity="1.000000" stroke="none" 
	d="
M49.734978,52.925316 
	C44.934471,52.152607 44.836197,48.394634 46.632858,46.320351 
	C50.288227,42.100143 53.496899,36.764584 59.956837,36.036072 
	C63.584232,41.528179 59.719547,48.068756 49.734978,52.925316 
z"/>
<path fill="#50545E" opacity="1.000000" stroke="none" 
	d="
M131.106140,81.001175 
	C134.420242,80.965225 137.782608,80.579933 141.029770,81.028496 
	C142.883347,81.284554 144.549194,82.899742 146.299561,83.902962 
	C146.066208,84.386955 145.832870,84.870941 145.599533,85.354935 
	C143.797821,85.686234 141.996109,86.017532 139.962173,86.391533 
	C139.962173,90.805618 139.876694,94.940651 139.989075,99.070305 
	C140.079865,102.406509 138.742020,103.668205 135.025787,102.609474 
	C135.025787,97.423599 135.025787,92.158096 134.837128,86.069656 
	C133.130188,85.042740 131.611893,84.838745 129.507904,84.556053 
	C130.163651,83.097504 130.634888,82.049339 131.106140,81.001175 
z"/>
<path fill="#B20C0C" opacity="1.000000" stroke="none" 
	d="
M78.652206,61.854080 
	C76.671753,64.226044 74.585487,65.125496 72.560959,62.840912 
	C70.759537,60.808086 70.370186,58.566246 72.958244,56.425945 
	C75.249222,54.531338 76.967567,51.859196 79.420616,50.277836 
	C80.875092,49.340202 83.263046,49.850613 85.231277,49.709923 
	C85.114845,51.671154 85.640778,54.026604 84.734612,55.503189 
	C83.298859,57.842724 80.904900,59.594212 78.652206,61.854080 
z"/>
<path fill="#4D505B" opacity="1.000000" stroke="none" 
	d="
M127.997086,101.042160 
	C126.766647,101.849686 125.536209,102.657211 123.995667,103.668251 
	C123.995667,97.515938 123.995667,92.789276 124.397835,87.550964 
	C126.890541,86.762405 128.166504,87.173752 128.031891,89.789413 
	C127.839310,93.531013 127.991890,97.290382 127.997086,101.042160 
z"/>
<path fill="#E7E5EB" opacity="1.000000" stroke="none" 
	d="
M128.403473,100.868958 
	C127.991890,97.290382 127.839310,93.531013 128.031891,89.789413 
	C128.166504,87.173752 126.890541,86.762405 124.361183,87.098022 
	C124.263779,81.568153 124.263779,81.568153 130.968460,80.650009 
	C130.634888,82.049339 130.163651,83.097504 129.507904,84.556053 
	C131.611893,84.838745 133.130188,85.042740 134.818939,85.598770 
	C130.410675,85.319931 128.359695,87.005737 128.946167,91.887817 
	C129.293198,94.776649 128.880768,97.756721 128.403473,100.868958 
z"/>
<path fill="#F2EEF5" opacity="1.000000" stroke="none" 
	d="
M121.836288,90.560425 
	C119.440880,90.878075 116.986336,90.878075 114.263351,90.878075 
	C114.085022,92.608673 113.941566,94.000923 113.798103,95.393173 
	C113.393379,95.481339 112.988655,95.569504 112.583931,95.657669 
	C111.946960,92.612381 111.309998,89.567085 110.738174,86.833260 
	C114.657524,86.833260 117.835861,86.833260 121.008698,86.426788 
	C121.261192,87.427803 121.519165,88.835289 121.836288,90.560425 
z"/>
<path fill="#F3EFF5" opacity="1.000000" stroke="none" 
	d="
M105.267517,91.072235 
	C102.992805,91.094162 100.902847,90.915070 98.859489,91.146843 
	C98.541542,91.182907 98.436333,93.094559 98.599243,94.383102 
	C98.965736,94.627312 98.949394,94.838593 98.949394,94.838593 
	C98.105103,95.195862 96.584305,95.958359 96.518860,95.849106 
	C95.655289,94.407387 94.621689,92.893555 94.405617,91.293137 
	C94.233727,90.019974 95.123360,88.603508 95.467903,87.489357 
	C98.435249,87.662178 101.310303,87.829620 104.626671,87.929276 
	C105.067986,87.861496 105.468132,87.993713 105.671494,88.048943 
	C105.903694,88.802994 105.932533,89.501816 105.917816,90.548248 
	C105.874268,90.895866 105.467575,91.006180 105.267517,91.072235 
z"/>
<path fill="#B20C0C" opacity="1.000000" stroke="none" 
	d="
M65.118179,29.590271 
	C69.006950,29.275940 69.145210,31.808926 68.862320,34.126350 
	C68.760040,34.964298 67.193604,36.267967 66.349304,36.227650 
	C64.895119,36.158211 62.555573,35.505432 62.245361,34.555885 
	C61.585117,32.534874 61.319965,29.810656 65.118179,29.590271 
z"/>
<path fill="#F3EFF5" opacity="1.000000" stroke="none" 
	d="
M52.861343,87.078789 
	C52.910519,86.577194 52.959698,86.075592 52.998329,85.194984 
	C53.724792,83.647667 54.461800,82.479370 55.556725,81.191429 
	C55.936989,86.381783 55.959339,91.691765 55.985336,97.464615 
	C55.558571,97.955078 55.128155,97.982666 54.380695,98.075989 
	C53.849800,97.147690 53.635941,96.153664 54.127926,94.897995 
	C54.176292,92.117157 53.518818,89.597969 52.861343,87.078789 
z"/>
<path fill="#535761" opacity="1.000000" stroke="none" 
	d="
M84.158058,101.319214 
	C85.525848,100.482475 86.959404,99.957237 88.668633,99.227074 
	C88.944298,100.137962 88.944298,101.253784 88.944298,102.707291 
	C87.268852,102.325180 85.746338,101.977951 84.158058,101.319214 
z"/>
<path fill="#535761" opacity="1.000000" stroke="none" 
	d="
M78.503845,99.150970 
	C78.649445,95.908798 80.661011,96.907654 82.764481,97.945221 
	C81.590553,98.549957 80.224640,98.832771 78.503845,99.150970 
z"/>
<path fill="#535761" opacity="1.000000" stroke="none" 
	d="
M82.987885,81.671516 
	C81.692787,82.250305 80.217735,82.467934 78.400864,82.833153 
	C78.557999,79.342110 81.006935,81.247269 82.987885,81.671516 
z"/>
<path fill="#535761" opacity="1.000000" stroke="none" 
	d="
M75.046326,102.510727 
	C75.631058,101.846199 76.415184,101.427780 77.555283,101.008232 
	C77.022743,101.590347 76.134232,102.173592 75.046326,102.510727 
z"/>
<path fill="#4F535D" opacity="1.000000" stroke="none" 
	d="
M38.484131,98.118393 
	C38.393250,97.756882 38.607510,97.398567 38.821766,97.040245 
	C39.509876,97.547523 40.197987,98.054802 40.902260,98.899017 
	C40.208706,98.864510 39.498989,98.493042 38.484131,98.118393 
z"/>
<path fill="#4F535D" opacity="1.000000" stroke="none" 
	d="
M44.017754,95.610100 
	C43.068127,95.935112 41.897568,95.959587 40.288322,95.964584 
	C41.165359,95.733253 42.481091,95.521400 44.017754,95.610100 
z"/>
<path fill="#4F535D" opacity="1.000000" stroke="none" 
	d="
M46.989128,94.326248 
	C47.535130,94.527412 48.213276,95.005371 48.914471,95.830200 
	C48.332104,95.652397 47.726685,95.127724 46.989128,94.326248 
z"/>
<path fill="#535761" opacity="1.000000" stroke="none" 
	d="
M88.867096,97.705940 
	C88.413681,97.457771 87.948372,96.927887 87.682907,96.221298 
	C88.206909,96.504478 88.531059,96.964348 88.867096,97.705940 
z"/>
<path fill="#535761" opacity="1.000000" stroke="none" 
	d="
M73.655518,96.943192 
	C73.475647,97.523552 73.004616,98.210907 72.184937,98.922653 
	C72.345642,98.314751 72.854996,97.682465 73.655518,96.943192 
z"/>
<path fill="#4F535D" opacity="1.000000" stroke="none" 
	d="
M52.376808,100.999611 
	C52.500179,100.449432 52.896008,99.778816 53.609726,99.056740 
	C53.501503,99.629913 53.075386,100.254547 52.376808,100.999611 
z"/>
<path fill="#4F535D" opacity="1.000000" stroke="none" 
	d="
M41.080559,100.298569 
	C41.652874,100.437737 42.278145,100.873703 42.949135,101.618347 
	C42.374409,101.483147 41.753963,101.039261 41.080559,100.298569 
z"/>
<path fill="#535761" opacity="1.000000" stroke="none" 
	d="
M87.073608,93.670166 
	C86.704231,93.474380 86.384727,92.939789 86.078064,92.074585 
	C86.435104,92.273102 86.779289,92.802223 87.073608,93.670166 
z"/>
<path fill="#4F535D" opacity="1.000000" stroke="none" 
	d="
M43.063278,92.268188 
	C43.498405,92.204773 44.083115,92.421257 44.809368,92.925339 
	C44.371559,92.991333 43.792210,92.769714 43.063278,92.268188 
z"/>
<path fill="#535761" opacity="1.000000" stroke="none" 
	d="
M86.051346,90.668259 
	C85.688286,90.479774 85.373543,89.958031 85.065842,89.113449 
	C85.415154,89.305405 85.757408,89.820206 86.051346,90.668259 
z"/>
<path fill="#535761" opacity="1.000000" stroke="none" 
	d="
M78.059036,99.782455 
	C77.830856,99.813950 77.666145,99.636162 77.530975,99.438210 
	C77.519066,99.420769 77.700294,99.271446 77.984299,99.150528 
	C78.176781,99.117683 78.130417,99.567772 78.059036,99.782455 
z"/>
<path fill="#4F535D" opacity="1.000000" stroke="none" 
	d="
M51.281734,101.889969 
	C51.154922,101.595802 51.364746,101.366730 51.881435,101.138428 
	C51.917461,101.337105 51.727486,101.609062 51.281734,101.889969 
z"/>
<path fill="#535761" opacity="1.000000" stroke="none" 
	d="
M72.088409,101.285339 
	C72.395714,101.144264 72.630196,101.350662 72.861946,101.870834 
	C72.654205,101.914116 72.373009,101.730186 72.088409,101.285339 
z"/>
<path fill="#535761" opacity="1.000000" stroke="none" 
	d="
M72.995567,102.350342 
	C73.122810,102.098831 73.359337,102.083206 73.951424,102.089272 
	C73.906273,102.269379 73.505562,102.427803 72.995567,102.350342 
z"/>
<path fill="#000000" opacity="1.000000" stroke="none" 
	d="
M83.061234,19.079029 
	C91.546547,14.400619 98.320488,17.256502 100.472549,26.162008 
	C101.508591,30.449320 98.338234,34.661507 92.524864,36.721394 
	C88.078743,38.296814 83.047523,36.375557 81.069405,32.935253 
	C78.120583,27.806728 79.307129,23.428032 83.061234,19.079029 
z"/>
<path fill="#535761" opacity="1.000000" stroke="none" 
	d="
M81.309189,90.646126 
	C80.676582,90.713318 80.237427,90.634544 79.798279,90.555771 
	C80.002754,90.329727 80.252914,89.887894 80.402817,89.919624 
	C80.792908,90.002220 81.139008,90.292656 81.309189,90.646126 
z"/>
<path fill="#000000" opacity="1.000000" stroke="none" 
	d="
M52.548042,87.191910 
	C53.518818,89.597969 54.176292,92.117157 54.451508,94.747833 
	C51.647930,93.006088 49.226608,91.152847 46.464996,88.802856 
	C46.066391,87.875854 46.008072,87.445595 45.949753,87.015335 
	C45.949753,87.015335 46.013527,86.590744 46.358521,86.335533 
	C47.132637,86.007721 47.561756,85.935120 47.990875,85.862518 
	C49.405495,86.343361 50.820118,86.824196 52.548042,87.191910 
z"/>
<path fill="#4F535D" opacity="1.000000" stroke="none" 
	d="
M47.939465,85.574905 
	C47.561756,85.935120 47.132637,86.007721 46.379234,86.121857 
	C46.665985,85.871361 47.277020,85.579330 47.939465,85.574905 
z"/>
<path fill="#4F535D" opacity="1.000000" stroke="none" 
	d="
M45.734772,87.178322 
	C46.008072,87.445595 46.066391,87.875854 46.162041,88.630295 
	C45.972847,88.416756 45.746319,87.879028 45.734772,87.178322 
z"/>
<path fill="#F0EDF3" opacity="1.000000" stroke="none" 
	d="
M99.138977,94.825562 
	C98.949394,94.838593 98.965736,94.627312 98.975281,94.521790 
	C99.104462,94.376831 99.235718,94.287567 99.340446,94.312004 
	C99.444916,94.336372 99.522804,94.474678 99.612350,94.563019 
	C99.517754,94.646187 99.423157,94.729355 99.138977,94.825562 
z"/>
</svg>