<svg version="1.1" id="Layer_1" xmlns="http://www.w3.org/2000/svg" xmlns:xlink="http://www.w3.org/1999/xlink" x="0px" y="0px"
	 width="100%" viewBox="0 0 960 1088" enable-background="new 0 0 960 1088" xml:space="preserve">
<path fill="#FEFEFE" opacity="1.000000" stroke="none" 
	d="
M411.000000,1089.000000 
	C274.000000,1089.000000 137.500000,1089.000000 1.000000,1089.000000 
	C1.000000,726.333313 1.000000,363.666656 1.000000,1.000000 
	C321.000000,1.000000 641.000000,1.000000 961.000000,1.000000 
	C961.000000,363.666656 961.000000,726.333313 961.000000,1089.000000 
	C777.833313,1089.000000 594.666687,1089.000000 411.000000,1089.000000 
M749.217957,666.441223 
	C752.669739,665.887695 756.110229,664.952881 759.575317,664.850708 
	C770.910950,664.516418 770.788086,664.634460 770.651733,653.561462 
	C770.601990,649.519348 769.231201,647.994263 765.065979,648.048950 
	C750.247253,648.243469 735.424377,648.179993 720.603394,648.122681 
	C708.469727,648.075806 709.270386,647.253296 709.420227,660.674072 
	C709.451904,663.510986 710.764099,664.926819 713.751587,664.828247 
	C717.411194,664.707397 721.097961,665.041260 724.736328,664.738464 
	C728.955444,664.387268 730.200806,666.068359 730.156982,670.161865 
	C729.980347,686.646423 729.966614,703.135071 730.113403,719.620178 
	C730.236694,733.456665 728.115845,731.806763 742.248474,731.923645 
	C749.422302,731.982971 749.518372,731.920593 749.536926,724.762024 
	C749.577026,709.274963 749.535583,693.787415 749.456665,678.300476 
	C749.449402,676.883057 748.932983,675.468201 748.731934,673.162415 
	C748.662476,671.081909 748.593018,669.001465 749.217957,666.441223 
M645.916443,731.606445 
	C646.634827,731.575989 647.353271,731.545532 648.477112,732.113403 
	C654.579773,732.079590 660.441956,731.816528 666.278748,729.000122 
	C672.592834,725.953308 675.636841,723.130676 675.754272,716.149658 
	C675.891418,707.992065 675.631470,699.827454 675.794495,691.670837 
	C675.865845,688.101379 674.262024,686.944946 671.015137,686.972473 
	C665.186829,687.021851 659.357300,686.914307 653.528931,686.958252 
	C643.835266,687.031311 643.835510,687.059875 644.156311,696.593689 
	C644.333984,701.874939 645.704712,702.899414 650.976685,702.542053 
	C652.581604,702.433228 655.680847,703.482361 655.682251,704.007385 
	C655.690796,707.308533 655.774353,713.044128 654.430664,713.461792 
	C650.252563,714.760193 644.985962,715.222961 641.050659,713.684509 
	C638.489624,712.683289 636.284241,707.714355 636.058044,704.377991 
	C635.406189,694.763672 635.682007,685.071411 635.953857,675.419983 
	C636.024048,672.928894 636.783020,669.942688 638.322571,668.100891 
	C643.639282,661.740356 653.879517,663.758179 656.110474,671.679565 
	C657.325867,675.995239 659.515869,677.327332 663.579407,676.882935 
	C666.997192,676.509277 670.437561,676.338562 673.850586,675.931885 
	C674.185364,675.892029 674.499817,674.853638 674.652100,674.236389 
	C676.340088,667.396240 671.246887,655.947388 665.398987,651.946106 
	C660.724731,648.747742 655.770996,647.804382 650.337830,648.072327 
	C644.698853,648.350464 638.523865,647.155457 633.527893,649.069946 
	C623.890503,652.762878 617.495789,660.712280 616.451477,671.072571 
	C615.027954,685.195740 613.432739,699.381653 617.753235,713.567444 
	C621.381226,725.479736 632.969666,733.689941 645.916443,731.606445 
M378.500244,581.921082 
	C415.821594,581.977295 453.142944,582.039856 490.464325,582.065857 
	C491.921021,582.066833 493.874268,582.250427 494.750061,581.437500 
	C498.816956,577.662292 503.522003,576.123047 508.947723,576.297363 
	C509.753845,576.323303 511.133240,576.304749 511.293549,575.914673 
	C513.138550,571.425842 516.928589,572.973877 520.205566,572.821838 
	C521.328125,572.769714 523.151489,572.699280 523.431396,572.082336 
	C525.150208,568.293213 528.392395,569.372253 531.230957,569.370850 
	C559.722534,569.356506 588.214294,569.424683 616.705383,569.319458 
	C618.184814,569.314026 619.706848,568.031128 621.126709,567.202148 
	C624.621582,565.161499 628.068420,563.038635 632.730896,560.227600 
	C633.907837,559.716980 636.162170,558.734253 638.420898,557.761658 
	C639.149658,557.447815 640.296204,557.363525 640.562500,556.830139 
	C643.522034,550.902527 650.321716,550.503662 654.971069,546.939636 
	C659.932495,543.136414 666.398987,541.310059 672.160889,538.522400 
	C672.989075,538.121704 673.459534,537.033386 674.255249,536.502869 
	C675.678833,535.553711 677.234131,534.804138 678.715088,533.938293 
	C679.865540,533.265686 681.032288,532.605469 682.106750,531.822998 
	C682.982178,531.185486 683.685242,530.314392 684.547546,529.655334 
	C685.946228,528.586365 687.360535,527.518799 688.868530,526.618591 
	C689.914795,525.994080 691.110657,525.596558 692.274292,525.198608 
	C693.460327,524.793030 694.719971,524.594666 695.891113,524.155457 
	C697.715698,523.471130 699.489502,522.009155 701.290588,521.999817 
	C730.281494,521.849121 759.273193,521.881165 788.264771,521.848938 
	C789.694580,521.847351 791.124207,521.636658 792.459961,521.530762 
	C792.459961,455.025970 792.459961,388.989014 792.459961,322.782104 
	C590.145569,322.782104 388.285645,322.782104 186.232925,322.782104 
	C186.232925,389.235840 186.232925,455.289856 186.232925,521.635498 
	C187.826904,521.755432 189.113617,521.937988 190.400101,521.936340 
	C211.560501,521.908508 232.720856,521.846008 253.881271,521.827820 
	C256.242676,521.825806 258.524841,521.192078 260.211456,524.305786 
	C261.322449,526.356812 264.311096,527.475403 266.589996,528.783264 
	C268.525177,529.893860 270.710327,530.563416 272.671600,531.635376 
	C274.999512,532.907776 277.148712,534.507935 279.480133,535.772949 
	C282.327606,537.317993 285.353699,538.538574 288.173828,540.127930 
	C291.097168,541.775391 293.783722,543.847229 296.724518,545.458435 
	C300.268372,547.400024 303.969727,549.054321 307.605286,550.828186 
	C309.778595,551.888611 312.054199,552.778870 314.111206,554.029541 
	C317.948883,556.362854 321.616394,558.975037 325.440216,561.332458 
	C328.070404,562.953918 331.170105,563.955688 333.489044,565.911438 
	C338.828552,570.414612 343.333801,572.784363 350.579071,574.111633 
	C351.405457,574.262939 352.286163,574.992798 352.824554,575.696838 
	C355.908844,579.730530 359.220917,582.770630 365.020142,581.960754 
	C369.102661,581.390503 373.334961,581.892822 378.500244,581.921082 
M465.210602,721.217712 
	C464.986420,700.747437 464.720367,680.277527 464.554565,659.806763 
	C464.462799,648.477600 464.538452,648.476990 453.373260,648.631042 
	C447.160065,648.716736 446.686523,649.118591 446.722290,655.638062 
	C446.780701,666.292358 447.023163,676.945740 447.059998,687.599976 
	C447.066772,689.551636 446.465057,691.505371 446.000671,694.331909 
	C444.606903,693.065491 443.960663,692.740723 443.727661,692.228149 
	C438.036835,679.709534 432.313843,667.204407 426.780853,654.615845 
	C425.087433,650.763123 422.955292,648.068176 418.304932,648.514282 
	C416.651917,648.672852 414.977814,648.640442 413.313232,648.644348 
	C406.306396,648.660828 406.338715,648.653809 406.353027,655.838013 
	C406.395844,677.318115 406.422729,698.798157 406.432068,720.278259 
	C406.437042,731.689575 406.419128,731.443604 417.743378,731.642151 
	C422.471710,731.725037 423.818451,730.051208 423.732483,725.628052 
	C423.502777,713.809387 423.539978,701.984924 423.551819,690.162903 
	C423.553650,688.319641 423.978516,686.476746 424.306763,683.837524 
	C425.581635,684.962952 426.233032,685.276978 426.468689,685.784180 
	C431.905121,697.486023 437.839081,708.998047 442.502563,721.002930 
	C445.545288,728.835510 449.367096,732.791870 458.340118,731.764282 
	C462.933289,731.238342 465.078033,730.228088 465.015503,725.625305 
	C464.999695,724.463623 465.131622,723.299927 465.210602,721.217712 
M272.830231,712.188843 
	C272.771881,705.364380 272.579224,698.537354 272.710754,691.716553 
	C272.778351,688.210449 271.352356,687.039978 267.995605,687.121704 
	C261.340881,687.283875 254.666946,687.473511 248.025772,687.146790 
	C241.320847,686.816956 242.714417,691.377808 242.630325,695.167969 
	C242.538879,699.289429 243.869720,701.848694 248.728302,701.565918 
	C250.307373,701.473999 252.984940,702.524658 253.434189,703.707947 
	C255.856308,710.087708 252.997345,714.695251 246.244965,716.136780 
	C240.705688,717.319397 233.778183,713.729614 233.599426,708.613464 
	C233.164993,696.179138 233.202698,683.704346 233.714493,671.273193 
	C233.907974,666.573425 238.094147,664.285339 242.541824,663.968445 
	C246.829758,663.662903 251.485870,663.503235 252.844849,669.286987 
	C254.231354,675.187866 257.628021,677.919067 263.891357,676.504822 
	C265.472656,676.147705 267.321808,676.840027 268.837067,676.370117 
	C270.080322,675.984680 271.914398,674.615906 271.942505,673.638550 
	C272.299286,661.230042 263.743134,648.793213 250.527924,648.539001 
	C245.870697,648.449402 241.209335,648.603210 236.550095,648.584778 
	C226.852722,648.546265 214.946045,660.775818 214.527237,670.323853 
	C214.003052,682.274048 214.248047,694.260010 214.243744,706.230530 
	C214.239166,718.989563 227.094376,732.913147 240.774658,731.844543 
	C245.247116,731.495239 249.941879,732.385803 254.212860,731.363525 
	C267.189545,728.257629 275.302979,726.374207 272.830231,712.188843 
M566.358337,702.335632 
	C566.571533,692.191772 566.516724,682.032471 567.103455,671.910217 
	C567.428711,666.298950 571.770081,664.497925 576.833618,663.813782 
	C581.632507,663.165405 585.841125,664.741882 586.763245,669.217468 
	C588.303345,676.693298 593.031250,677.014587 598.831482,676.442444 
	C599.654053,676.361267 600.500122,676.418884 601.326965,676.498596 
	C604.658386,676.819885 605.994629,675.125977 605.585022,672.037354 
	C604.443237,663.426941 602.072205,655.904419 593.332458,651.308716 
	C587.380676,648.179138 581.459778,648.780029 575.406555,648.447693 
	C558.989807,647.546143 547.481689,660.487976 547.616577,674.971619 
	C547.690979,682.961121 547.352234,690.953857 547.256165,698.945801 
	C547.182007,705.113708 547.376587,711.259521 550.781372,716.731934 
	C555.087585,723.653320 560.458618,730.081970 568.738342,731.203674 
	C578.364441,732.507874 588.415222,733.064331 597.533447,728.202393 
	C601.393127,726.144409 606.266846,725.021790 605.954834,718.627319 
	C605.517273,709.661804 605.811646,700.655212 605.966858,691.669189 
	C606.016724,688.782227 605.220276,687.325134 602.088318,687.361755 
	C594.927124,687.445374 587.761536,687.247437 580.603394,687.411560 
	C579.134644,687.445251 577.069214,688.150146 576.342468,689.249084 
	C573.115906,694.127930 576.987305,701.761841 582.744263,702.084412 
	C585.440002,702.235535 587.553772,702.950012 587.335327,705.981323 
	C587.103821,709.194458 589.181030,713.639893 584.478149,715.057068 
	C575.253906,717.836792 566.006104,716.595337 566.358337,702.335632 
M340.730255,710.113953 
	C342.522797,714.305420 343.586609,719.046570 346.251770,722.579773 
	C352.854736,731.333374 371.875763,735.281372 382.089081,730.723816 
	C391.201294,726.657532 395.962097,719.417236 396.149445,709.684631 
	C396.324982,700.563538 392.873077,692.797302 384.517395,688.087646 
	C378.638458,684.774109 372.426392,682.028748 366.683990,678.506531 
	C364.221802,676.996338 361.794678,674.467224 360.754486,671.844666 
	C359.464508,668.592041 363.291931,663.939575 367.000153,663.053589 
	C370.990448,662.100220 376.506348,664.773865 377.077362,669.024475 
	C377.785858,674.298706 380.797668,674.529358 384.742126,674.316345 
	C386.901489,674.199707 389.070953,674.264893 391.235931,674.259766 
	C394.474670,674.252075 395.547699,672.550293 395.379517,669.453125 
	C394.778534,658.383850 385.572754,648.001831 373.816498,648.324524 
	C369.490692,648.443237 365.033203,647.819519 360.863617,648.662109 
	C353.906036,650.068115 347.950409,653.594299 344.536652,660.231201 
	C337.524841,673.863464 345.192413,687.495667 358.037750,693.090759 
	C363.614532,695.519775 369.088959,698.454285 374.037048,701.966309 
	C377.669220,704.544373 378.700745,709.282837 376.614075,713.198120 
	C374.500610,717.163574 370.299591,717.222534 366.000885,716.346741 
	C361.550232,715.440002 359.524872,712.708252 358.631897,708.678162 
	C357.869751,705.238342 355.933929,703.500793 352.273102,703.840271 
	C349.794983,704.070129 347.299957,704.172668 344.810577,704.212830 
	C341.338226,704.268799 340.042267,706.024109 340.730255,710.113953 
M698.152466,731.537292 
	C702.821167,732.368347 703.303162,729.476013 703.276367,725.927917 
	C703.160828,710.644958 702.969971,695.360657 703.075317,680.078613 
	C703.153809,668.696960 703.337463,668.698181 692.084717,668.579590 
	C685.954163,668.514893 685.673523,668.727051 685.641968,675.067810 
	C685.567627,690.019836 685.527161,704.972290 685.547302,719.924438 
	C685.563049,731.585999 685.612732,731.585938 698.152466,731.537292 
M525.916809,679.242249 
	C524.187561,673.236023 522.507690,667.214966 520.718811,661.226562 
	C517.036438,648.899597 514.907837,647.283691 502.846588,648.328613 
	C501.375732,648.456055 499.403442,650.024109 498.786255,651.420654 
	C496.933014,655.614014 495.691895,660.073547 494.109131,664.391602 
	C491.230133,672.245850 488.094574,680.010864 485.397705,687.926086 
	C481.362213,699.769958 477.694855,711.739014 473.700470,723.597412 
	C472.198273,728.057129 473.244354,732.162048 476.638031,732.373047 
	C480.606598,732.619873 484.681458,732.762146 488.562866,732.094116 
	C490.364014,731.784119 492.486206,729.751770 493.287903,727.971252 
	C494.946014,724.288635 494.683807,718.591064 497.310730,716.798218 
	C500.316864,714.746582 505.602417,716.033936 509.897705,715.873535 
	C510.396362,715.854858 510.900635,715.897888 511.394043,715.840942 
	C515.800598,715.332153 519.219788,715.733215 519.459412,721.584900 
	C519.568054,724.236023 521.163757,726.860657 522.267822,729.418274 
	C522.665771,730.340149 523.564331,731.683411 524.293640,731.722229 
	C529.415100,731.994629 534.553223,732.074829 539.683594,732.014465 
	C542.825378,731.977417 543.033813,729.945190 542.222168,727.505676 
	C538.752441,717.076477 535.291931,706.644226 531.807251,696.220093 
	C529.991211,690.787598 528.132080,685.369568 525.916809,679.242249 
M331.965149,713.599304 
	C332.457275,706.345459 333.529358,699.066956 333.222290,691.847107 
	C333.040466,687.571777 331.419189,682.936523 329.160187,679.250610 
	C322.634308,668.602295 312.212036,665.707153 300.674408,667.901001 
	C292.401947,669.473938 285.407410,674.556702 282.912170,682.813660 
	C280.894135,689.491394 280.198792,696.876038 280.487183,703.882507 
	C281.182495,720.775635 289.273346,734.345215 310.370056,732.570068 
	C320.455383,731.721436 329.036163,724.928955 331.965149,713.599304 
z"/>
<path fill="#030202" opacity="1.000000" stroke="none" 
	d="
M378.000305,581.918640 
	C373.334961,581.892822 369.102661,581.390503 365.020142,581.960754 
	C359.220917,582.770630 355.908844,579.730530 352.824554,575.696838 
	C352.286163,574.992798 351.405457,574.262939 350.579071,574.111633 
	C343.333801,572.784363 338.828552,570.414612 333.489044,565.911438 
	C331.170105,563.955688 328.070404,562.953918 325.440216,561.332458 
	C321.616394,558.975037 317.948883,556.362854 314.111206,554.029541 
	C312.054199,552.778870 309.778595,551.888611 307.605286,550.828186 
	C303.969727,549.054321 300.268372,547.400024 296.724518,545.458435 
	C293.783722,543.847229 291.097168,541.775391 288.173828,540.127930 
	C285.353699,538.538574 282.327606,537.317993 279.480133,535.772949 
	C277.148712,534.507935 274.999512,532.907776 272.671600,531.635376 
	C270.710327,530.563416 268.525177,529.893860 266.589996,528.783264 
	C264.311096,527.475403 261.322449,526.356812 260.211456,524.305786 
	C258.524841,521.192078 256.242676,521.825806 253.881271,521.827820 
	C232.720856,521.846008 211.560501,521.908508 190.400101,521.936340 
	C189.113617,521.937988 187.826904,521.755432 186.232925,521.635498 
	C186.232925,455.289856 186.232925,389.235840 186.232925,322.782104 
	C388.285645,322.782104 590.145569,322.782104 792.459961,322.782104 
	C792.459961,388.989014 792.459961,455.025970 792.459961,521.530762 
	C791.124207,521.636658 789.694580,521.847351 788.264771,521.848938 
	C759.273193,521.881165 730.281494,521.849121 701.290588,521.999817 
	C699.489502,522.009155 697.715698,523.471130 695.891113,524.155457 
	C694.719971,524.594666 693.460327,524.793030 692.274292,525.198608 
	C691.110657,525.596558 689.914795,525.994080 688.868530,526.618591 
	C687.360535,527.518799 685.946228,528.586365 684.547546,529.655334 
	C683.685242,530.314392 682.982178,531.185486 682.106750,531.822998 
	C681.032288,532.605469 679.865540,533.265686 678.715088,533.938293 
	C677.234131,534.804138 675.678833,535.553711 674.255249,536.502869 
	C673.459534,537.033386 672.989075,538.121704 672.160889,538.522400 
	C666.398987,541.310059 659.932495,543.136414 654.971069,546.939636 
	C650.321716,550.503662 643.522034,550.902527 640.562500,556.830139 
	C640.296204,557.363525 639.149658,557.447815 638.420898,557.761658 
	C636.162170,558.734253 633.907837,559.716980 632.730896,560.227600 
	C628.068420,563.038635 624.621582,565.161499 621.126709,567.202148 
	C619.706848,568.031128 618.184814,569.314026 616.705383,569.319458 
	C588.214294,569.424683 559.722534,569.356506 531.230957,569.370850 
	C528.392395,569.372253 525.150208,568.293213 523.431396,572.082336 
	C523.151489,572.699280 521.328125,572.769714 520.205566,572.821838 
	C516.928589,572.973877 513.138550,571.425842 511.293549,575.914673 
	C511.133240,576.304749 509.753845,576.323303 508.947723,576.297363 
	C503.522003,576.123047 498.816956,577.662292 494.750061,581.437500 
	C493.874268,582.250427 491.921021,582.066833 490.464325,582.065857 
	C453.142944,582.039856 415.821594,581.977295 378.000305,581.918640 
M471.562469,474.074249 
	C460.740540,484.886139 449.922546,495.702026 439.094482,506.507782 
	C435.255432,510.338928 433.757416,520.765747 437.610077,524.682556 
	C441.746796,528.888306 447.165558,531.832947 450.965546,534.566040 
	C453.319153,532.792542 454.674011,531.701233 456.100098,530.712646 
	C458.634583,528.955688 461.555847,527.609741 463.715088,525.482605 
	C476.373474,513.012024 488.901184,500.407318 501.355225,487.732208 
	C503.251099,485.802643 504.054169,485.953766 506.559174,487.278168 
	C510.500427,489.361877 513.308960,494.291992 518.849426,493.034943 
	C519.411499,492.907379 520.100952,493.364960 520.736206,493.532410 
	C524.958557,494.645752 529.126099,496.211395 533.420898,496.739441 
	C538.016541,497.304443 542.754272,497.178864 547.390869,496.831970 
	C553.595276,496.367767 560.466858,499.068756 565.725281,493.325836 
	C566.148376,492.863800 567.344971,493.189270 568.130493,492.966553 
	C572.261597,491.795258 576.819397,491.307800 580.389343,489.176544 
	C585.379150,486.197662 589.841736,482.208923 594.144592,478.234985 
	C601.071228,471.837860 608.240784,465.553070 610.429688,455.623627 
	C611.172607,452.253876 611.785156,448.218201 613.973816,445.950439 
	C617.446472,442.352234 616.977661,438.488281 616.983398,434.425629 
	C616.993042,427.596771 617.272034,420.743164 616.788330,413.946198 
	C616.355591,407.867065 618.879700,401.642426 613.450073,395.750122 
	C609.491333,391.454193 609.188354,383.803253 605.249695,379.472015 
	C598.091064,371.599731 591.961182,362.239227 581.395569,358.007965 
	C578.621033,356.896790 576.043091,355.277222 573.243042,354.250610 
	C567.968750,352.316803 562.528625,348.974976 557.282227,349.194885 
	C544.557800,349.728333 531.496582,346.119873 519.061584,351.731415 
	C515.186523,353.480133 510.487152,353.721344 507.011932,355.964569 
	C501.386780,359.595612 496.277130,364.106781 491.282623,368.615021 
	C483.040405,376.054718 475.876495,384.293365 473.870605,395.805237 
	C473.717407,396.684509 472.718445,397.383087 472.326141,398.261108 
	C471.554932,399.987061 470.379089,401.768585 470.341949,403.547394 
	C470.119324,414.203369 469.640717,424.900970 470.355804,435.509918 
	C470.720184,440.916077 473.347168,446.181976 475.047028,451.480621 
	C475.870300,454.046936 476.176208,457.603699 477.997131,458.869415 
	C483.258484,462.526581 480.340271,464.978363 477.596191,467.821198 
	C475.749817,469.734131 473.920044,471.663055 471.562469,474.074249 
M380.760559,531.272522 
	C381.312439,530.669495 381.886871,529.525330 382.412781,529.547180 
	C387.597687,529.762878 390.376007,525.782654 393.357391,522.833191 
	C404.334229,511.973785 415.103607,500.890808 425.577179,489.546722 
	C428.061066,486.856445 430.503876,482.783112 430.406067,479.420410 
	C430.301483,475.824371 427.380981,472.184967 425.277191,468.822540 
	C424.139221,467.003754 422.268097,464.597198 420.507996,464.398102 
	C413.477051,463.602570 406.819458,463.961060 401.216339,469.917053 
	C392.015442,479.697235 382.052765,488.756653 372.569519,498.277618 
	C369.468079,501.391449 365.461670,504.587280 364.328583,508.464386 
	C362.254883,515.559998 363.723816,522.757202 370.489105,527.343445 
	C373.402466,529.318420 376.953400,530.352905 380.760559,531.272522 
M470.446106,567.704773 
	C471.580078,568.653442 472.777618,569.536499 473.836243,570.562805 
	C477.224609,573.847595 488.206604,574.038879 491.635223,570.719604 
	C499.710968,562.901489 507.776276,555.071228 515.745117,547.144653 
	C519.846313,543.065186 524.821228,539.323303 527.337097,534.378601 
	C529.050781,531.010437 528.338562,525.284912 526.612488,521.595276 
	C524.764587,517.645203 522.040283,512.813904 515.613708,513.848389 
	C510.724701,514.635437 505.717316,513.063965 501.439728,517.756287 
	C492.976685,527.039856 484.223724,536.161621 474.766083,544.404236 
	C466.993195,551.178528 468.480682,558.851379 470.446106,567.704773 
z"/>
<path fill="#535761" opacity="1.000000" stroke="none" 
	d="
M465.203125,721.677429 
	C465.131622,723.299927 464.999695,724.463623 465.015503,725.625305 
	C465.078033,730.228088 462.933289,731.238342 458.340118,731.764282 
	C449.367096,732.791870 445.545288,728.835510 442.502563,721.002930 
	C437.839081,708.998047 431.905121,697.486023 426.468689,685.784180 
	C426.233032,685.276978 425.581635,684.962952 424.306763,683.837524 
	C423.978516,686.476746 423.553650,688.319641 423.551819,690.162903 
	C423.539978,701.984924 423.502777,713.809387 423.732483,725.628052 
	C423.818451,730.051208 422.471710,731.725037 417.743378,731.642151 
	C406.419128,731.443604 406.437042,731.689575 406.432068,720.278259 
	C406.422729,698.798157 406.395844,677.318115 406.353027,655.838013 
	C406.338715,648.653809 406.306396,648.660828 413.313232,648.644348 
	C414.977814,648.640442 416.651917,648.672852 418.304932,648.514282 
	C422.955292,648.068176 425.087433,650.763123 426.780853,654.615845 
	C432.313843,667.204407 438.036835,679.709534 443.727661,692.228149 
	C443.960663,692.740723 444.606903,693.065491 446.000671,694.331909 
	C446.465057,691.505371 447.066772,689.551636 447.059998,687.599976 
	C447.023163,676.945740 446.780701,666.292358 446.722290,655.638062 
	C446.686523,649.118591 447.160065,648.716736 453.373260,648.631042 
	C464.538452,648.476990 464.462799,648.477600 464.554565,659.806763 
	C464.720367,680.277527 464.986420,700.747437 465.203125,721.677429 
z"/>
<path fill="#555A65" opacity="1.000000" stroke="none" 
	d="
M272.831665,712.647461 
	C275.302979,726.374207 267.189545,728.257629 254.212860,731.363525 
	C249.941879,732.385803 245.247116,731.495239 240.774658,731.844543 
	C227.094376,732.913147 214.239166,718.989563 214.243744,706.230530 
	C214.248047,694.260010 214.003052,682.274048 214.527237,670.323853 
	C214.946045,660.775818 226.852722,648.546265 236.550095,648.584778 
	C241.209335,648.603210 245.870697,648.449402 250.527924,648.539001 
	C263.743134,648.793213 272.299286,661.230042 271.942505,673.638550 
	C271.914398,674.615906 270.080322,675.984680 268.837067,676.370117 
	C267.321808,676.840027 265.472656,676.147705 263.891357,676.504822 
	C257.628021,677.919067 254.231354,675.187866 252.844849,669.286987 
	C251.485870,663.503235 246.829758,663.662903 242.541824,663.968445 
	C238.094147,664.285339 233.907974,666.573425 233.714493,671.273193 
	C233.202698,683.704346 233.164993,696.179138 233.599426,708.613464 
	C233.778183,713.729614 240.705688,717.319397 246.244965,716.136780 
	C252.997345,714.695251 255.856308,710.087708 253.434189,703.707947 
	C252.984940,702.524658 250.307373,701.473999 248.728302,701.565918 
	C243.869720,701.848694 242.538879,699.289429 242.630325,695.167969 
	C242.714417,691.377808 241.320847,686.816956 248.025772,687.146790 
	C254.666946,687.473511 261.340881,687.283875 267.995605,687.121704 
	C271.352356,687.039978 272.778351,688.210449 272.710754,691.716553 
	C272.579224,698.537354 272.771881,705.364380 272.831665,712.647461 
z"/>
<path fill="#545863" opacity="1.000000" stroke="none" 
	d="
M566.366943,702.809937 
	C566.006104,716.595337 575.253906,717.836792 584.478149,715.057068 
	C589.181030,713.639893 587.103821,709.194458 587.335327,705.981323 
	C587.553772,702.950012 585.440002,702.235535 582.744263,702.084412 
	C576.987305,701.761841 573.115906,694.127930 576.342468,689.249084 
	C577.069214,688.150146 579.134644,687.445251 580.603394,687.411560 
	C587.761536,687.247437 594.927124,687.445374 602.088318,687.361755 
	C605.220276,687.325134 606.016724,688.782227 605.966858,691.669189 
	C605.811646,700.655212 605.517273,709.661804 605.954834,718.627319 
	C606.266846,725.021790 601.393127,726.144409 597.533447,728.202393 
	C588.415222,733.064331 578.364441,732.507874 568.738342,731.203674 
	C560.458618,730.081970 555.087585,723.653320 550.781372,716.731934 
	C547.376587,711.259521 547.182007,705.113708 547.256165,698.945801 
	C547.352234,690.953857 547.690979,682.961121 547.616577,674.971619 
	C547.481689,660.487976 558.989807,647.546143 575.406555,648.447693 
	C581.459778,648.780029 587.380676,648.179138 593.332458,651.308716 
	C602.072205,655.904419 604.443237,663.426941 605.585022,672.037354 
	C605.994629,675.125977 604.658386,676.819885 601.326965,676.498596 
	C600.500122,676.418884 599.654053,676.361267 598.831482,676.442444 
	C593.031250,677.014587 588.303345,676.693298 586.763245,669.217468 
	C585.841125,664.741882 581.632507,663.165405 576.833618,663.813782 
	C571.770081,664.497925 567.428711,666.298950 567.103455,671.910217 
	C566.516724,682.032471 566.571533,692.191772 566.366943,702.809937 
z"/>
<path fill="#545964" opacity="1.000000" stroke="none" 
	d="
M340.646973,709.725708 
	C340.042267,706.024109 341.338226,704.268799 344.810577,704.212830 
	C347.299957,704.172668 349.794983,704.070129 352.273102,703.840271 
	C355.933929,703.500793 357.869751,705.238342 358.631897,708.678162 
	C359.524872,712.708252 361.550232,715.440002 366.000885,716.346741 
	C370.299591,717.222534 374.500610,717.163574 376.614075,713.198120 
	C378.700745,709.282837 377.669220,704.544373 374.037048,701.966309 
	C369.088959,698.454285 363.614532,695.519775 358.037750,693.090759 
	C345.192413,687.495667 337.524841,673.863464 344.536652,660.231201 
	C347.950409,653.594299 353.906036,650.068115 360.863617,648.662109 
	C365.033203,647.819519 369.490692,648.443237 373.816498,648.324524 
	C385.572754,648.001831 394.778534,658.383850 395.379517,669.453125 
	C395.547699,672.550293 394.474670,674.252075 391.235931,674.259766 
	C389.070953,674.264893 386.901489,674.199707 384.742126,674.316345 
	C380.797668,674.529358 377.785858,674.298706 377.077362,669.024475 
	C376.506348,664.773865 370.990448,662.100220 367.000153,663.053589 
	C363.291931,663.939575 359.464508,668.592041 360.754486,671.844666 
	C361.794678,674.467224 364.221802,676.996338 366.683990,678.506531 
	C372.426392,682.028748 378.638458,684.774109 384.517395,688.087646 
	C392.873077,692.797302 396.324982,700.563538 396.149445,709.684631 
	C395.962097,719.417236 391.201294,726.657532 382.089081,730.723816 
	C371.875763,735.281372 352.854736,731.333374 346.251770,722.579773 
	C343.586609,719.046570 342.522797,714.305420 340.646973,709.725708 
z"/>
<path fill="#494E5A" opacity="1.000000" stroke="none" 
	d="
M648.071655,731.515015 
	C647.353271,731.545532 646.634827,731.575989 645.384033,731.241943 
	C640.912903,729.687317 636.951904,728.565491 633.040039,727.292908 
	C624.407532,724.484619 619.870728,717.364014 619.345642,709.432068 
	C618.441467,695.772827 619.525696,681.980408 619.832397,668.245178 
	C619.857422,667.125854 620.131348,665.927734 620.607239,664.915649 
	C625.429382,654.661865 633.879578,649.873779 644.872742,650.077759 
	C649.849182,650.169983 654.802917,651.855042 659.753479,652.882507 
	C666.401001,654.262268 673.944885,665.173828 672.819702,671.777283 
	C672.717285,672.378174 672.284485,673.382385 671.938721,673.411499 
	C668.329407,673.715515 664.677368,674.175842 661.105347,673.848816 
	C660.059265,673.753052 658.990234,671.395447 658.342285,669.897095 
	C655.503357,663.332397 653.603638,661.963501 646.798645,661.997498 
	C640.037720,662.031311 637.037781,663.985352 634.610291,670.049377 
	C630.168335,681.145813 631.387695,692.852112 632.680298,704.050476 
	C634.134521,716.649292 645.824890,723.049561 655.587524,716.008972 
	C658.229309,714.103699 659.234009,701.280640 656.507019,699.641113 
	C655.715881,699.165405 654.597656,699.163574 653.618286,699.088013 
	C652.292542,698.985718 650.423157,699.559570 649.739319,698.882141 
	C648.463989,697.618774 647.236084,695.682922 647.181152,693.988342 
	C647.126526,692.302551 648.465393,689.124634 649.316711,689.082214 
	C657.042908,688.697571 664.796265,688.856750 672.234009,688.856750 
	C672.234009,693.129883 672.142517,696.609802 672.259766,700.082581 
	C672.377197,703.559998 672.655090,707.034424 672.946655,710.503113 
	C673.868652,721.472656 671.484558,724.657410 660.667542,727.457581 
	C656.404480,728.561157 652.266541,730.148193 648.071655,731.515015 
z"/>
<path fill="#494D59" opacity="1.000000" stroke="none" 
	d="
M748.523560,666.920959 
	C748.593018,669.001465 748.662476,671.081909 748.443787,673.930664 
	C748.089050,691.161987 748.090515,707.626160 747.832214,724.086243 
	C747.810547,725.468079 746.014099,728.006470 745.091614,727.983887 
	C741.154175,727.887634 737.234558,727.035583 733.315979,726.411926 
	C733.251709,726.401672 733.276428,725.793152 733.269958,725.463623 
	C733.153503,719.529968 732.992126,713.596680 732.936462,707.662476 
	C732.882202,701.885254 732.904785,696.106750 732.951355,690.329285 
	C733.004395,683.742065 732.701477,677.115234 733.328003,670.579834 
	C733.960388,663.982910 732.805054,662.158691 726.051270,662.126526 
	C721.791809,662.106262 717.532227,662.122742 713.247681,662.122742 
	C713.035767,660.322205 712.921387,659.344177 712.805542,658.366333 
	C712.044739,651.944763 712.044312,651.897644 718.658691,651.847351 
	C726.082092,651.791016 733.508362,651.942566 740.929443,651.798340 
	C748.387024,651.653503 755.839355,651.246399 763.294678,650.973145 
	C767.404175,650.822449 767.102600,653.742188 767.075867,656.463806 
	C767.049927,659.103271 767.638062,662.099121 763.444214,662.076538 
	C759.618530,662.055908 755.789246,662.223694 751.967346,662.111877 
	C748.259521,662.003418 747.034912,663.428711 748.523560,666.920959 
z"/>
<path fill="#8D9199" opacity="1.000000" stroke="none" 
	d="
M648.274414,731.814209 
	C652.266541,730.148193 656.404480,728.561157 660.667542,727.457581 
	C671.484558,724.657410 673.868652,721.472656 672.946655,710.503113 
	C672.655090,707.034424 672.377197,703.559998 672.259766,700.082581 
	C672.142517,696.609802 672.234009,693.129883 672.234009,688.856750 
	C664.796265,688.856750 657.042908,688.697571 649.316711,689.082214 
	C648.465393,689.124634 647.126526,692.302551 647.181152,693.988342 
	C647.236084,695.682922 648.463989,697.618774 649.739319,698.882141 
	C650.423157,699.559570 652.292542,698.985718 653.618286,699.088013 
	C654.597656,699.163574 655.715881,699.165405 656.507019,699.641113 
	C659.234009,701.280640 658.229309,714.103699 655.587524,716.008972 
	C645.824890,723.049561 634.134521,716.649292 632.680298,704.050476 
	C631.387695,692.852112 630.168335,681.145813 634.610291,670.049377 
	C637.037781,663.985352 640.037720,662.031311 646.798645,661.997498 
	C653.603638,661.963501 655.503357,663.332397 658.342285,669.897095 
	C658.990234,671.395447 660.059265,673.753052 661.105347,673.848816 
	C664.677368,674.175842 668.329407,673.715515 671.938721,673.411499 
	C672.284485,673.382385 672.717285,672.378174 672.819702,671.777283 
	C673.944885,665.173828 666.401001,654.262268 659.753479,652.882507 
	C654.802917,651.855042 649.849182,650.169983 644.872742,650.077759 
	C633.879578,649.873779 625.429382,654.661865 620.607239,664.915649 
	C620.131348,665.927734 619.857422,667.125854 619.832397,668.245178 
	C619.525696,681.980408 618.441467,695.772827 619.345642,709.432068 
	C619.870728,717.364014 624.407532,724.484619 633.040039,727.292908 
	C636.951904,728.565491 640.912903,729.687317 645.028687,731.180054 
	C632.969666,733.689941 621.381226,725.479736 617.753235,713.567444 
	C613.432739,699.381653 615.027954,685.195740 616.451477,671.072571 
	C617.495789,660.712280 623.890503,652.762878 633.527893,649.069946 
	C638.523865,647.155457 644.698853,648.350464 650.337830,648.072327 
	C655.770996,647.804382 660.724731,648.747742 665.398987,651.946106 
	C671.246887,655.947388 676.340088,667.396240 674.652100,674.236389 
	C674.499817,674.853638 674.185364,675.892029 673.850586,675.931885 
	C670.437561,676.338562 666.997192,676.509277 663.579407,676.882935 
	C659.515869,677.327332 657.325867,675.995239 656.110474,671.679565 
	C653.879517,663.758179 643.639282,661.740356 638.322571,668.100891 
	C636.783020,669.942688 636.024048,672.928894 635.953857,675.419983 
	C635.682007,685.071411 635.406189,694.763672 636.058044,704.377991 
	C636.284241,707.714355 638.489624,712.683289 641.050659,713.684509 
	C644.985962,715.222961 650.252563,714.760193 654.430664,713.461792 
	C655.774353,713.044128 655.690796,707.308533 655.682251,704.007385 
	C655.680847,703.482361 652.581604,702.433228 650.976685,702.542053 
	C645.704712,702.899414 644.333984,701.874939 644.156311,696.593689 
	C643.835510,687.059875 643.835266,687.031311 653.528931,686.958252 
	C659.357300,686.914307 665.186829,687.021851 671.015137,686.972473 
	C674.262024,686.944946 675.865845,688.101379 675.794495,691.670837 
	C675.631470,699.827454 675.891418,707.992065 675.754272,716.149658 
	C675.636841,723.130676 672.592834,725.953308 666.278748,729.000122 
	C660.441956,731.816528 654.579773,732.079590 648.274414,731.814209 
z"/>
<path fill="#515560" opacity="1.000000" stroke="none" 
	d="
M697.699158,731.539185 
	C685.612732,731.585938 685.563049,731.585999 685.547302,719.924438 
	C685.527161,704.972290 685.567627,690.019836 685.641968,675.067810 
	C685.673523,668.727051 685.954163,668.514893 692.084717,668.579590 
	C703.337463,668.698181 703.153809,668.696960 703.075317,680.078613 
	C702.969971,695.360657 703.160828,710.644958 703.276367,725.927917 
	C703.303162,729.476013 702.821167,732.368347 697.699158,731.539185 
z"/>
<path fill="#8C9098" opacity="1.000000" stroke="none" 
	d="
M526.104614,679.593628 
	C528.132080,685.369568 529.991211,690.787598 531.807251,696.220093 
	C535.291931,706.644226 538.752441,717.076477 542.222168,727.505676 
	C543.033813,729.945190 542.825378,731.977417 539.683594,732.014465 
	C534.553223,732.074829 529.415100,731.994629 524.293640,731.722229 
	C523.564331,731.683411 522.665771,730.340149 522.267822,729.418274 
	C521.163757,726.860657 519.568054,724.236023 519.459412,721.584900 
	C519.219788,715.733215 515.800598,715.332153 511.394043,715.840942 
	C510.900635,715.897888 510.396362,715.854858 509.897705,715.873535 
	C505.602417,716.033936 500.316864,714.746582 497.310730,716.798218 
	C494.683807,718.591064 494.946014,724.288635 493.287903,727.971252 
	C492.486206,729.751770 490.364014,731.784119 488.562866,732.094116 
	C484.681458,732.762146 480.606598,732.619873 476.638031,732.373047 
	C473.244354,732.162048 472.198273,728.057129 473.700470,723.597412 
	C477.694855,711.739014 481.362213,699.769958 485.397705,687.926086 
	C488.094574,680.010864 491.230133,672.245850 494.109131,664.391602 
	C495.691895,660.073547 496.933014,655.614014 498.786255,651.420654 
	C499.403442,650.024109 501.375732,648.456055 502.846588,648.328613 
	C514.907837,647.283691 517.036438,648.899597 520.718811,661.226562 
	C522.507690,667.214966 524.187561,673.236023 526.104614,679.593628 
M481.044281,711.772949 
	C479.433472,716.993347 477.822662,722.213745 475.775970,728.846619 
	C480.621307,728.846619 484.815338,728.912292 489.002625,728.773682 
	C489.610596,728.753601 490.482849,727.862732 490.726685,727.191040 
	C491.938507,723.852722 492.645233,720.284912 494.217377,717.141907 
	C495.068024,715.441345 497.122345,713.690369 498.937286,713.268616 
	C502.120392,712.528687 505.593323,713.125366 508.845154,712.574158 
	C517.854187,711.046875 522.250671,714.044556 522.830139,723.203064 
	C523.083679,727.210754 524.605103,728.527161 528.345947,728.213745 
	C529.635803,728.105713 530.976257,728.692017 532.279907,728.636780 
	C534.330872,728.549683 536.370239,728.187927 538.414490,727.942383 
	C538.116394,725.703857 538.161560,723.348938 537.450500,721.250366 
	C535.849854,716.526550 533.711487,711.985840 532.089844,707.268127 
	C529.658630,700.195129 527.530457,693.018677 525.182068,685.916321 
	C523.631226,681.226196 521.742615,676.642090 520.330383,671.913391 
	C518.872620,667.032166 518.136414,661.918884 516.464355,657.123474 
	C515.212708,653.533875 513.198486,650.191040 508.196381,650.870667 
	C505.018372,651.302490 501.348083,650.008545 499.898499,654.458740 
	C496.335266,665.398010 492.704315,676.315186 489.080505,687.234558 
	C486.452667,695.152710 483.792664,703.060242 481.044281,711.772949 
z"/>
<path fill="#8D9199" opacity="1.000000" stroke="none" 
	d="
M748.870789,666.681091 
	C747.034912,663.428711 748.259521,662.003418 751.967346,662.111877 
	C755.789246,662.223694 759.618530,662.055908 763.444214,662.076538 
	C767.638062,662.099121 767.049927,659.103271 767.075867,656.463806 
	C767.102600,653.742188 767.404175,650.822449 763.294678,650.973145 
	C755.839355,651.246399 748.387024,651.653503 740.929443,651.798340 
	C733.508362,651.942566 726.082092,651.791016 718.658691,651.847351 
	C712.044312,651.897644 712.044739,651.944763 712.805542,658.366333 
	C712.921387,659.344177 713.035767,660.322205 713.247681,662.122742 
	C717.532227,662.122742 721.791809,662.106262 726.051270,662.126526 
	C732.805054,662.158691 733.960388,663.982910 733.328003,670.579834 
	C732.701477,677.115234 733.004395,683.742065 732.951355,690.329285 
	C732.904785,696.106750 732.882202,701.885254 732.936462,707.662476 
	C732.992126,713.596680 733.153503,719.529968 733.269958,725.463623 
	C733.276428,725.793152 733.251709,726.401672 733.315979,726.411926 
	C737.234558,727.035583 741.154175,727.887634 745.091614,727.983887 
	C746.014099,728.006470 747.810547,725.468079 747.832214,724.086243 
	C748.090515,707.626160 748.089050,691.161987 748.404297,674.375488 
	C748.932983,675.468201 749.449402,676.883057 749.456665,678.300476 
	C749.535583,693.787415 749.577026,709.274963 749.536926,724.762024 
	C749.518372,731.920593 749.422302,731.982971 742.248474,731.923645 
	C728.115845,731.806763 730.236694,733.456665 730.113403,719.620178 
	C729.966614,703.135071 729.980347,686.646423 730.156982,670.161865 
	C730.200806,666.068359 728.955444,664.387268 724.736328,664.738464 
	C721.097961,665.041260 717.411194,664.707397 713.751587,664.828247 
	C710.764099,664.926819 709.451904,663.510986 709.420227,660.674072 
	C709.270386,647.253296 708.469727,648.075806 720.603394,648.122681 
	C735.424377,648.179993 750.247253,648.243469 765.065979,648.048950 
	C769.231201,647.994263 770.601990,649.519348 770.651733,653.561462 
	C770.788086,664.634460 770.910950,664.516418 759.575317,664.850708 
	C756.110229,664.952881 752.669739,665.887695 748.870789,666.681091 
z"/>
<path fill="#888C95" opacity="1.000000" stroke="none" 
	d="
M331.873108,713.991821 
	C329.036163,724.928955 320.455383,731.721436 310.370056,732.570068 
	C289.273346,734.345215 281.182495,720.775635 280.487183,703.882507 
	C280.198792,696.876038 280.894135,689.491394 282.912170,682.813660 
	C285.407410,674.556702 292.401947,669.473938 300.674408,667.901001 
	C312.212036,665.707153 322.634308,668.602295 329.160187,679.250610 
	C331.419189,682.936523 333.040466,687.571777 333.222290,691.847107 
	C333.529358,699.066956 332.457275,706.345459 331.873108,713.991821 
M321.990295,725.568481 
	C327.174164,720.353638 330.644135,714.517822 330.125000,706.715393 
	C329.728271,700.752319 330.060303,694.743896 329.954071,688.757629 
	C329.857208,683.298401 327.335968,679.030579 323.261719,675.506104 
	C315.999298,669.223877 307.387238,670.318542 299.093750,671.577759 
	C290.350708,672.905151 284.138794,681.234802 283.925812,690.192139 
	C283.859039,692.999939 283.189697,695.818359 283.345520,698.601135 
	C283.667297,704.346924 283.467377,710.335144 285.067291,715.755737 
	C289.592224,731.086121 310.108551,735.224243 321.990295,725.568481 
z"/>
<path fill="#BE1213" opacity="1.000000" stroke="none" 
	d="
M471.822632,473.829529 
	C473.920044,471.663055 475.749817,469.734131 477.596191,467.821198 
	C480.340271,464.978363 483.258484,462.526581 477.997131,458.869415 
	C476.176208,457.603699 475.870300,454.046936 475.047028,451.480621 
	C473.347168,446.181976 470.720184,440.916077 470.355804,435.509918 
	C469.640717,424.900970 470.119324,414.203369 470.341949,403.547394 
	C470.379089,401.768585 471.554932,399.987061 472.326141,398.261108 
	C472.718445,397.383087 473.717407,396.684509 473.870605,395.805237 
	C475.876495,384.293365 483.040405,376.054718 491.282623,368.615021 
	C496.277130,364.106781 501.386780,359.595612 507.011932,355.964569 
	C510.487152,353.721344 515.186523,353.480133 519.061584,351.731415 
	C531.496582,346.119873 544.557800,349.728333 557.282227,349.194885 
	C562.528625,348.974976 567.968750,352.316803 573.243042,354.250610 
	C576.043091,355.277222 578.621033,356.896790 581.395569,358.007965 
	C591.961182,362.239227 598.091064,371.599731 605.249695,379.472015 
	C609.188354,383.803253 609.491333,391.454193 613.450073,395.750122 
	C618.879700,401.642426 616.355591,407.867065 616.788330,413.946198 
	C617.272034,420.743164 616.993042,427.596771 616.983398,434.425629 
	C616.977661,438.488281 617.446472,442.352234 613.973816,445.950439 
	C611.785156,448.218201 611.172607,452.253876 610.429688,455.623627 
	C608.240784,465.553070 601.071228,471.837860 594.144592,478.234985 
	C589.841736,482.208923 585.379150,486.197662 580.389343,489.176544 
	C576.819397,491.307800 572.261597,491.795258 568.130493,492.966553 
	C567.344971,493.189270 566.148376,492.863800 565.725281,493.325836 
	C560.466858,499.068756 553.595276,496.367767 547.390869,496.831970 
	C542.754272,497.178864 538.016541,497.304443 533.420898,496.739441 
	C529.126099,496.211395 524.958557,494.645752 520.736206,493.532410 
	C520.100952,493.364960 519.411499,492.907379 518.849426,493.034943 
	C513.308960,494.291992 510.500427,489.361877 506.559174,487.278168 
	C504.054169,485.953766 503.251099,485.802643 501.355225,487.732208 
	C488.901184,500.407318 476.373474,513.012024 463.715088,525.482605 
	C461.555847,527.609741 458.634583,528.955688 456.100098,530.712646 
	C454.674011,531.701233 453.319153,532.792542 450.965546,534.566040 
	C447.165558,531.832947 441.746796,528.888306 437.610077,524.682556 
	C433.757416,520.765747 435.255432,510.338928 439.094482,506.507782 
	C449.922546,495.702026 460.740540,484.886139 471.822632,473.829529 
M509.537140,393.129547 
	C503.203308,398.903931 500.514587,407.120178 499.374725,414.671722 
	C498.294769,421.826355 496.802338,429.755066 501.679077,437.521545 
	C505.081970,442.940826 507.092926,449.292084 511.891327,454.008209 
	C518.661377,460.662170 526.328674,465.314972 536.027710,466.300507 
	C543.938049,467.104309 551.379639,467.476135 559.175476,463.924500 
	C564.630371,461.439301 570.422363,459.891083 574.330505,455.128235 
	C577.170593,451.667053 579.520874,447.781525 581.889221,443.961029 
	C585.442078,438.229553 589.067871,432.594177 588.089783,425.197205 
	C587.439697,420.280731 588.852173,414.841095 587.279785,410.358856 
	C585.200806,404.432404 581.693176,398.745911 577.751038,393.790436 
	C570.279480,384.398285 560.535706,378.648560 548.046021,378.752045 
	C546.214050,378.767212 544.377441,378.855011 542.550659,378.760864 
	C529.454956,378.085785 518.750305,383.010345 509.537140,393.129547 
z"/>
<path fill="#BA1113" opacity="1.000000" stroke="none" 
	d="
M380.487610,531.543579 
	C376.953400,530.352905 373.402466,529.318420 370.489105,527.343445 
	C363.723816,522.757202 362.254883,515.559998 364.328583,508.464386 
	C365.461670,504.587280 369.468079,501.391449 372.569519,498.277618 
	C382.052765,488.756653 392.015442,479.697235 401.216339,469.917053 
	C406.819458,463.961060 413.477051,463.602570 420.507996,464.398102 
	C422.268097,464.597198 424.139221,467.003754 425.277191,468.822540 
	C427.380981,472.184967 430.301483,475.824371 430.406067,479.420410 
	C430.503876,482.783112 428.061066,486.856445 425.577179,489.546722 
	C415.103607,500.890808 404.334229,511.973785 393.357391,522.833191 
	C390.376007,525.782654 387.597687,529.762878 382.412781,529.547180 
	C381.886871,529.525330 381.312439,530.669495 380.487610,531.543579 
z"/>
<path fill="#BB1113" opacity="1.000000" stroke="none" 
	d="
M470.237518,567.367004 
	C468.480682,558.851379 466.993195,551.178528 474.766083,544.404236 
	C484.223724,536.161621 492.976685,527.039856 501.439728,517.756287 
	C505.717316,513.063965 510.724701,514.635437 515.613708,513.848389 
	C522.040283,512.813904 524.764587,517.645203 526.612488,521.595276 
	C528.338562,525.284912 529.050781,531.010437 527.337097,534.378601 
	C524.821228,539.323303 519.846313,543.065186 515.745117,547.144653 
	C507.776276,555.071228 499.710968,562.901489 491.635223,570.719604 
	C488.206604,574.038879 477.224609,573.847595 473.836243,570.562805 
	C472.777618,569.536499 471.580078,568.653442 470.237518,567.367004 
z"/>
<path fill="#4C515C" opacity="1.000000" stroke="none" 
	d="
M481.095642,711.372681 
	C483.792664,703.060242 486.452667,695.152710 489.080505,687.234558 
	C492.704315,676.315186 496.335266,665.398010 499.898499,654.458740 
	C501.348083,650.008545 505.018372,651.302490 508.196381,650.870667 
	C513.198486,650.191040 515.212708,653.533875 516.464355,657.123474 
	C518.136414,661.918884 518.872620,667.032166 520.330383,671.913391 
	C521.742615,676.642090 523.631226,681.226196 525.182068,685.916321 
	C527.530457,693.018677 529.658630,700.195129 532.089844,707.268127 
	C533.711487,711.985840 535.849854,716.526550 537.450500,721.250366 
	C538.161560,723.348938 538.116394,725.703857 538.414490,727.942383 
	C536.370239,728.187927 534.330872,728.549683 532.279907,728.636780 
	C530.976257,728.692017 529.635803,728.105713 528.345947,728.213745 
	C524.605103,728.527161 523.083679,727.210754 522.830139,723.203064 
	C522.250671,714.044556 517.854187,711.046875 508.845154,712.574158 
	C505.593323,713.125366 502.120392,712.528687 498.937286,713.268616 
	C497.122345,713.690369 495.068024,715.441345 494.217377,717.141907 
	C492.645233,720.284912 491.938507,723.852722 490.726685,727.191040 
	C490.482849,727.862732 489.610596,728.753601 489.002625,728.773682 
	C484.815338,728.912292 480.621307,728.846619 475.775970,728.846619 
	C477.822662,722.213745 479.433472,716.993347 481.095642,711.372681 
M512.404968,691.020203 
	C511.460999,687.353394 510.597565,683.662659 509.518890,680.035889 
	C509.233398,679.075989 508.285034,678.313232 507.640991,677.459961 
	C506.958740,678.061829 505.880951,678.543945 505.656799,679.284485 
	C503.848083,685.259827 502.011597,691.242493 500.677155,697.331055 
	C500.438110,698.421631 502.272675,700.956543 503.495636,701.220154 
	C512.734314,703.210999 514.313660,701.558838 512.669495,692.314697 
	C512.640564,692.151917 512.616394,691.988342 512.404968,691.020203 
z"/>
<path fill="#4C515D" opacity="1.000000" stroke="none" 
	d="
M321.742493,725.841553 
	C310.108551,735.224243 289.592224,731.086121 285.067291,715.755737 
	C283.467377,710.335144 283.667297,704.346924 283.345520,698.601135 
	C283.189697,695.818359 283.859039,692.999939 283.925812,690.192139 
	C284.138794,681.234802 290.350708,672.905151 299.093750,671.577759 
	C307.387238,670.318542 315.999298,669.223877 323.261719,675.506104 
	C327.335968,679.030579 329.857208,683.298401 329.954071,688.757629 
	C330.060303,694.743896 329.728271,700.752319 330.125000,706.715393 
	C330.644135,714.517822 327.174164,720.353638 321.742493,725.841553 
M310.800995,716.466248 
	C311.865509,715.016113 313.796783,713.597168 313.850159,712.110718 
	C314.139252,704.060059 314.334381,695.961182 313.654541,687.956055 
	C313.508087,686.231201 309.749634,683.852722 307.431641,683.563171 
	C305.415710,683.311279 302.227509,685.026184 301.042480,686.841553 
	C296.239349,694.199158 297.422333,702.616272 299.011078,710.473816 
	C300.201080,716.359253 305.292206,718.507690 310.800995,716.466248 
z"/>
<path fill="#040000" opacity="1.000000" stroke="none" 
	d="
M509.769897,392.848175 
	C518.750305,383.010345 529.454956,378.085785 542.550659,378.760864 
	C544.377441,378.855011 546.214050,378.767212 548.046021,378.752045 
	C560.535706,378.648560 570.279480,384.398285 577.751038,393.790436 
	C581.693176,398.745911 585.200806,404.432404 587.279785,410.358856 
	C588.852173,414.841095 587.439697,420.280731 588.089783,425.197205 
	C589.067871,432.594177 585.442078,438.229553 581.889221,443.961029 
	C579.520874,447.781525 577.170593,451.667053 574.330505,455.128235 
	C570.422363,459.891083 564.630371,461.439301 559.175476,463.924500 
	C551.379639,467.476135 543.938049,467.104309 536.027710,466.300507 
	C526.328674,465.314972 518.661377,460.662170 511.891327,454.008209 
	C507.092926,449.292084 505.081970,442.940826 501.679077,437.521545 
	C496.802338,429.755066 498.294769,421.826355 499.374725,414.671722 
	C500.514587,407.120178 503.203308,398.903931 509.769897,392.848175 
z"/>
<path fill="#D6D8DC" opacity="1.000000" stroke="none" 
	d="
M512.497437,691.422668 
	C512.616394,691.988342 512.640564,692.151917 512.669495,692.314697 
	C514.313660,701.558838 512.734314,703.210999 503.495636,701.220154 
	C502.272675,700.956543 500.438110,698.421631 500.677155,697.331055 
	C502.011597,691.242493 503.848083,685.259827 505.656799,679.284485 
	C505.880951,678.543945 506.958740,678.061829 507.640991,677.459961 
	C508.285034,678.313232 509.233398,679.075989 509.518890,680.035889 
	C510.597565,683.662659 511.460999,687.353394 512.497437,691.422668 
z"/>
<path fill="#E8EAEB" opacity="1.000000" stroke="none" 
	d="
M310.525574,716.722534 
	C305.292206,718.507690 300.201080,716.359253 299.011078,710.473816 
	C297.422333,702.616272 296.239349,694.199158 301.042480,686.841553 
	C302.227509,685.026184 305.415710,683.311279 307.431641,683.563171 
	C309.749634,683.852722 313.508087,686.231201 313.654541,687.956055 
	C314.334381,695.961182 314.139252,704.060059 313.850159,712.110718 
	C313.796783,713.597168 311.865509,715.016113 310.525574,716.722534 
z"/>
</svg>